<svg
      
      version="1.1"
      id="svg132"
      width="1024"
      height="1024"
      viewBox="0 0 1024 1024"
      xmlns="http://www.w3.org/2000/svg"
    >
      <defs id="defs136" />
      <g id="g138">
        <path
          className="fill-current"
          d="M 495.0116,845.95595 C 447.42384,841.37126 397.44074,825.73655 358,803.09875 321.61986,782.21764 295.68212,761.84378 271.87206,735.44602 239.38856,699.43217 217.17616,661.78981 203.15838,619 191.43337,583.20899 186.68692,553.43591 186.6583,515.5 c -0.0248,-32.88068 3.09821,-55.59085 11.82673,-86.00253 10.66256,-37.15021 25.81427,-68.08815 48.84793,-99.74153 C 304.97969,250.53646 382.91142,203.64252 481.5,188.85035 c 13.92325,-2.08903 63.6229,-1.79212 79,0.47196 49.078,7.22611 93.64333,23.3814 133.58332,48.42503 74.79609,46.89951 129.67606,123.26569 149.29984,207.75266 9.43009,40.59972 9.84462,89.94425 1.1173,133 -6.29364,31.04931 -16.86536,62.09117 -29.99285,88.06832 -40.11965,79.39022 -113.62641,140.12112 -202.03258,166.91823 -13.72661,4.16072 -35.72168,8.74564 -52.97503,11.04276 -14.26278,1.89895 -51.12214,2.71437 -64.4884,1.42664 z M 560.5,829.95915 c 47.3388,-6.14283 91.59104,-22.81887 133.48283,-50.30173 22.0487,-14.46492 33.10712,-23.55074 53.02333,-43.56504 18.13283,-18.22215 28.87801,-31.63974 42.31184,-52.83517 8.04374,-12.69112 21.02283,-38.7865 26.06839,-52.41229 7.57398,-20.45395 15.43303,-50.85342 19.2201,-74.34492 2.16515,-13.43064 3.05295,-58.71912 1.44767,-73.84874 -7.04129,-66.36353 -38.84845,-132.04864 -89.13407,-184.07117 -36.83756,-38.10996 -85.21174,-67.67611 -136.44089,-83.39226 -66.93316,-20.53385 -132.49457,-18.28234 -201.80917,6.93052 -42.51751,15.46555 -93.05261,49.17602 -122.32868,81.60186 -56.33854,62.39994 -84.10873,128.1819 -86.05574,203.84869 -1.28877,50.08554 6.35836,88.60197 26.94483,135.71347 14.5752,33.35489 35.21384,63.21433 62.73661,90.76567 20.52807,20.54938 37.08766,33.90001 59.42171,47.9068 42.10057,26.40336 98.97032,45.63855 147.79878,49.99033 14.49109,1.29151 45.56692,0.3167 63.31246,-1.98602 z m -55,-28.62645 c -27.88948,-1.7113 -64.01897,-9.9743 -88.86627,-20.32417 -13.28546,-5.53391 -32.07382,-15.02294 -41.99983,-21.21195 -9.58529,-5.97656 -29.10832,-20.47503 -32.53067,-24.15839 -2.67803,-2.88226 -2.25347,-3.97089 3.01042,-7.71912 l 2.79128,-1.98756 6.29753,5.11182 c 33.32036,27.04671 84.07119,48.70164 130.34753,55.61815 15.10787,2.25804 55.30425,2.53888 68.95001,0.48174 48.69088,-7.34031 88.08459,-23.64018 126.90645,-52.50986 l 11.36512,-8.45162 3.66909,3.75749 3.6691,3.7575 -6.80488,5.99948 C 652.1698,775.08113 595.98819,797.32596 537.5,800.99046 c -15.32117,0.95992 -20.95208,1.02015 -32,0.34224 z m 6.66273,-57.50095 c -7.18322,-9.5141 -10.44334,-17.96882 -10.94682,-28.38925 -0.84406,-17.46933 4.10023,-30.01845 16.72215,-42.4425 9.15311,-9.00962 19.02594,-14.99317 37.88107,-22.95829 17.75244,-7.4993 24.73689,-11.02285 34.80401,-17.55815 C 614.54546,616.95385 628.75081,591.93698 630.64587,562 631.90349,542.13291 624.96526,522.90177 611.78262,509.71552 605.40114,503.33229 605,502.66295 605,498.39813 c 0,-4.23301 0.14886,-4.4885 2.25,-3.86168 10.9376,3.26295 24.75842,16.70259 31.84174,30.96355 7.11706,14.32888 9.40751,31.64067 6.43869,48.66515 -4.20794,24.13012 -13.679,42.1402 -31.47589,59.85422 -12.85789,12.79803 -33.28303,24.54622 -60.05454,34.54232 -6.875,2.56703 -15.65,6.28851 -19.5,8.26995 -8.90782,4.5845 -18.18251,13.69318 -22.06328,21.66836 -2.56481,5.27081 -2.91985,7.09378 -2.92138,15 -9.6e-4,4.95 0.59491,10.69454 1.32417,12.76564 l 1.32591,3.76563 4.29249,-12.46482 c 4.37324,-12.69931 7.38601,-18.71309 12.05678,-24.06645 l 2.61747,-3 -0.58746,13.5 c -0.3231,7.425 -1.27366,16.425 -2.11235,20 -1.51016,6.43725 -6.86275,18.27842 -10.34761,22.89133 l -1.80655,2.39132 z m -200.17845,-9.11661 c -4.68364,-4.51833 -11.77771,-11.73645 -15.76459,-16.04028 l -7.24888,-7.82513 2.02632,-2.84571 2.02633,-2.8457 16.88349,16.67084 16.8835,16.67084 -2.06954,2.25 c -1.13825,1.2375 -2.5536,2.23431 -3.14522,2.21514 -0.59163,-0.0192 -4.90776,-3.73167 -9.59141,-8.25 z m 235.77902,7.6525 c -0.27507,-0.4772 0.0169,-2.66764 0.64888,-4.86764 l 1.14902,-4 7.41125,-0.74198 c 15.05773,-1.5075 29.78075,-7.12484 42.54247,-16.23142 C 610.00606,709.04029 619.21323,698.20113 642.5,665.92238 659.56617,642.26627 676.24307,632 697.60476,632 c 23.2675,0 40.79202,14.79381 40.86818,34.5 0.0472,12.22355 -5.81038,19.5 -15.69775,19.5 -4.11455,0 -5.41205,-0.48302 -7.85211,-2.92308 -3.60313,-3.60312 -3.77076,-7.32015 -0.47861,-10.6123 2.89535,-2.89535 4.43491,-2.52037 6.82254,1.66171 1.6588,2.9055 1.90375,3.00509 4,1.62636 5.30101,-3.48654 6.11311,-10.59047 2.12545,-18.59265 -6.0394,-12.1195 -21.52241,-17.91053 -36.89246,-13.79869 -13.91529,3.72266 -25.44097,13.87647 -42.17554,37.15549 -26.14314,36.36704 -46.2524,52.19143 -75.3915,59.32715 -9.5532,2.33943 -24.41678,3.82973 -25.16966,2.52365 z m 166.79514,-1.58767 c -1.51203,-2.15873 -1.10637,-2.67685 14.6933,-18.76628 L 745.5,705.46744 l 2.35591,2.14491 c 1.61909,1.47409 2.15825,2.76768 1.72391,4.13615 C 748.7271,714.43519 719.50983,743 717.61449,743 c -0.82559,0 -2.20082,-0.99901 -3.05605,-2.22003 z m -245.72758,0.19688 c -19.49228,-3.28932 -39.04923,-14.037 -55.0262,-30.2401 -4.78244,-4.85013 -15.29522,-17.56796 -23.36173,-28.26185 -17.28845,-22.91956 -25.56658,-31.19909 -36.3359,-36.34209 -7.17824,-3.42804 -8.1707,-3.63277 -17.60703,-3.63204 -8.90635,6.9e-4 -10.54683,0.29167 -15,2.66071 -6.06927,3.22877 -10.86866,8.06785 -12.94932,13.0564 -1.81368,4.34844 -1.92182,6.90561 -0.50742,11.99838 1.89602,6.82686 5.88503,8.79838 8.16154,4.03374 1.70149,-3.56113 5.10478,-4.0738 7.19864,-1.08439 2.37848,3.39575 1.94419,6.64061 -1.32652,9.91131 -2.42499,2.42499 -3.74557,2.92244 -7.75,2.91934 -6.87272,-0.005 -10.86772,-2.75156 -14.02038,-9.63786 -2.18322,-4.76879 -2.4876,-6.58377 -2.07386,-12.36633 1.50228,-20.99638 22.07682,-34.88467 47.19876,-31.86028 18.97792,2.28473 33.13503,12.25133 49.60373,34.92102 24.10911,33.18696 31.03221,41.29493 42.46483,49.73258 6.92703,5.11238 13.64284,8.67597 21.47752,11.39658 6.99278,2.42826 18.14986,4.81803 22.49385,4.81803 3.06544,0 3.46693,0.37069 4.87393,4.5 l 1.5333,4.5 -7.1893,-0.11762 c -3.95411,-0.0647 -9.29041,-0.47218 -11.85844,-0.90553 z M 502.18807,567.25 502.5,464.5 H 487 471.5 l -9e-5,72.5 c -9e-5,75.74123 0.039,76.46717 4.25007,78.91989 1.24131,0.723 -2.99948,1.02813 -14.58887,1.0497 l -16.3389,0.0304 2.72946,-3.24378 2.72947,-3.24378 -0.64057,-11.91322 C 449.28826,592.04695 449,559.30665 449,525.843 V 465 h -38.86351 c -21.83717,0 -41.22336,0.44088 -44.25,1.00634 -2.96257,0.55349 -7.57378,2.13277 -10.24713,3.50952 -4.12771,2.12573 -4.74884,2.23787 -4.1192,0.74366 2.63966,-6.26421 3.57871,-13.87072 2.48661,-20.14203 -0.62012,-3.561 -1.58679,-7.33274 -2.14815,-8.38166 -0.56136,-1.04892 -0.8717,-2.05345 -0.68964,-2.23229 0.18206,-0.17884 3.70602,0.85523 7.83102,2.29793 l 7.5,2.62309 41.5,0.0377 41.5,0.0377 0.30301,-5.85408 c 0.21495,-4.15276 -0.22924,-6.92984 -1.5284,-9.55568 l -1.83141,-3.70161 14.04205,0.0557 14.04206,0.0557 -1.76366,3.46144 C 471.68502,431.07842 471,434.65465 471,438.16878 v 5.74589 l 29.25,0.29266 c 16.0875,0.16097 36.7875,0.15918 46,-0.004 L 563,443.90669 v -6.8185 c 0,-5.38389 -0.43607,-7.37286 -2.07258,-9.45335 L 558.85484,425 H 574.5 590.14516 l -2.07258,2.63486 c -2.72473,3.46393 -3.06253,16.04803 -0.45762,17.04763 0.88823,0.34084 20.57573,0.17254 43.75,-0.37402 39.28539,-0.92653 42.53502,-1.13982 48.04912,-3.1537 3.25274,-1.18797 6.07783,-1.99619 6.27798,-1.79605 0.20014,0.20015 -0.13574,1.66381 -0.74641,3.25259 -2.79213,7.26431 -2.92891,15.80332 -0.41173,25.70428 l 0.71582,2.8156 -3.87487,-1.69069 c -8.71254,-3.80146 -14.62849,-4.55387 -40.37487,-5.13505 -14.025,-0.31658 -32.1375,-0.24304 -40.25,0.16343 L 586,465.20792 v 73.25968 73.25967 l 2.63636,2.63637 L 591.27273,617 H 575.1665 559.06027 l 2.55382,-3.75 c 1.98756,-2.91852 2.42677,-4.52605 1.98087,-7.25 -0.31512,-1.925 -0.5779,-34.6625 -0.58395,-72.75 L 563,464 l -10.75,0.009 c -5.9125,0.005 -13.1125,0.29246 -16,0.63929 l -5.25,0.6306 v 90.6842 90.6842 l -7.00924,4.7892 c -3.85509,2.63406 -10.10853,7.88849 -13.89655,11.67651 -3.78802,3.78802 -7.18673,6.88731 -7.55269,6.88731 -0.36596,0 -0.52501,-46.2375 -0.35345,-102.75 z m -235.31303,87.5 C 253.05277,632.52021 242.79846,608.9381 236.98018,586 c -7.53551,-29.70813 -9.46506,-47.00504 -8.69916,-77.98126 0.75997,-30.73588 4.3399,-51.19649 13.71468,-78.3844 C 262.11984,371.27214 303.33389,317.33963 354,283.06602 405.24556,248.40043 460.26746,231 518.63792,231 c 20.74986,0 32.98597,1.04165 52.86208,4.5001 26.64395,4.63606 48.89437,12.0874 75.41871,25.25661 69.80405,34.65739 124.64834,97.11392 148.39602,168.993 5.32929,16.13058 8.75652,30.09073 12.33652,50.25029 2.70218,15.21638 2.46574,51.36708 -0.45579,69.68906 -4.42044,27.72217 -12.50806,55.8575 -22.3671,77.81094 -5.16492,11.50088 -17.49142,33.25474 -21.81545,38.5 l -2.06093,2.5 -3.47599,-3.91661 C 755.5642,662.42925 754,660.39336 754,660.05918 c 0,-0.33419 2.06764,-4.19671 4.59476,-8.58339 18.78641,-32.61024 29.98407,-64.18961 36.03303,-101.61946 2.11138,-13.06486 2.92925,-47.84446 1.43218,-60.90283 -3.24629,-28.31617 -13.15991,-62.14529 -25.44621,-86.8324 -9.03999,-18.16422 -23.718,-41.12049 -34.92415,-54.62106 -9.36402,-11.28125 -30.38733,-32.11007 -41.18961,-40.80853 -35.01585,-28.1963 -80.11619,-49.51719 -120.83744,-57.12512 -25.48689,-4.7617 -28.47274,-5.03317 -55.16256,-5.01543 -22.4661,0.0149 -27.83491,0.32903 -39.5,2.3109 -67.56692,11.47946 -124.98181,42.93542 -169.60116,92.91957 -49.22141,55.13956 -72.87769,122.22929 -68.45765,194.14738 1.61164,26.22273 5.16647,43.92327 13.77129,68.57119 4.18003,11.97342 17.32032,39.15995 23.79065,49.22155 l 4.64398,7.22155 -3.78532,4.52845 C 277.27987,665.9622 275.47236,668 275.34512,668 c -0.12725,0 -3.93879,-5.9625 -8.47008,-13.25 z m 205.76295,9.20794 c -20.25773,-6.85974 -35.54315,-15.97959 -49.77087,-29.69514 -19.75192,-19.04091 -28.43008,-35.73119 -32.4476,-62.40484 -4.05321,-26.91069 6.54306,-55.42482 25.91476,-69.73553 C 421.06399,498.62838 429.11331,494 430.46016,494 c 0.29691,0 0.5292,2.3625 0.5162,5.25 -0.0224,4.97686 -0.23624,5.40608 -4.11003,8.25 -4.28039,3.14242 -11.15813,12.09342 -14.71267,19.14774 -6.09724,12.10054 -8.43514,30.83853 -5.75934,46.16029 6.0827,34.82986 29.83583,60.34954 69.01373,74.14638 l 10.09195,3.55397 0.29044,8.24581 c 0.28239,8.01727 0.22696,8.24524 -2,8.22522 -1.25974,-0.0113 -6.27834,-1.37098 -11.15245,-3.02147 z M 697.5,524.25557 c -4.98499,-1.15165 -7.40075,-7.4332 -3.95762,-10.29074 1.07006,-0.88808 1.22318,-1.59927 0.5,-2.32245 C 693.46907,511.06907 693,509.35037 693,507.82305 c 0,-3.83772 3.82153,-6.26671 8.48343,-5.39214 4.07796,0.76503 5.96621,3.57089 5.14989,7.65248 -0.3123,1.56149 -0.13255,3.10807 0.39943,3.43685 1.63605,1.01113 1.09102,7.06223 -0.78275,8.69046 -2.05906,1.78924 -5.93535,2.69513 -8.75,2.04487 z m 4.92857,-3.827 c 1.87902,-1.87901 2.00119,-3.59881 0.37143,-5.22857 -0.66,-0.66 -1.75286,-1.2 -2.42857,-1.2 -1.40357,0 -4.37143,2.71569 -4.37143,4 0,0.47143 0.70714,1.56429 1.57143,2.42857 C 698.43571,521.29286 699.52857,522 700,522 c 0.47143,0 1.56429,-0.70714 2.42857,-1.57143 z m -0.61215,-12.17002 c -0.35496,-3.07538 -3.45673,-4.35945 -4.42643,-1.83246 -0.92815,2.41872 0.31818,4.57391 2.64505,4.57391 1.69721,0 2.03738,-0.5235 1.78138,-2.74145 z M 303.01531,522.75 c 0.0293,-2.39079 1.46899,-3.68774 3.01108,-2.71253 0.81049,0.51255 2.93611,0.9388 4.72361,0.94722 3.08891,0.0145 3.25076,-0.17056 3.26531,-3.73469 0.0347,-8.50206 3.3037,-7.36175 4.30014,1.5 l 0.59032,5.25 h -7.95288 c -5.70381,0 -7.94856,-0.3535 -7.93758,-1.25 z M 330,520.5 c 0,-3.91199 1.36239,-4.55991 3.03126,-1.4416 1.40107,2.61793 7.27102,2.39903 7.78036,-0.29014 0.23993,-1.26676 -1.1675,-2.39311 -5.24181,-4.19497 C 330.56303,512.35906 330,511.80124 330,509.05503 c 0,-4.84408 3.27478,-7.39688 8.70384,-6.78494 5.51173,0.62125 6.7609,1.71209 4.89023,4.27038 -1.36974,1.87322 -1.47575,1.87658 -3.42935,0.1086 -2.48813,-2.25173 -5.57033,-1.80507 -5.94238,0.86115 -0.2133,1.52863 0.9455,2.56918 5,4.48978 4.53037,2.14601 5.32071,2.94243 5.58166,5.62457 C 345.26341,522.34639 342.96137,524 335.92857,524 H 330 Z m 390.56783,2.60976 c -0.30261,-0.48964 0.95884,-1.60633 2.80323,-2.48155 1.84438,-0.87521 3.84693,-2.18595 4.45011,-2.91273 0.8733,-1.05226 0.34821,-1.34265 -2.57783,-1.42559 -6.98215,-0.19792 -9.86182,-8.08503 -4.49365,-12.30763 2.05481,-1.61632 3.60242,-2.02453 6.12403,-1.61533 9.3646,1.51967 10.42118,11.99991 1.9301,19.14469 -2.94085,2.47457 -7.18531,3.29817 -8.23599,1.59814 z m 7.85038,-10.71675 c 2.13502,-0.81928 1.99793,-3.70643 -0.27359,-5.76213 -2.17249,-1.96608 -4.80801,-1.2668 -5.68917,1.50949 -1.10136,3.47008 2.08325,5.74135 5.96276,4.25264 z m 29.95615,8.54977 C 751.19343,518.28638 752.91409,507 760.5,507 c 5.36692,0 8.48813,6.41663 5.67659,11.67005 -1.2429,2.32236 -4.83752,3.36945 -7.80223,2.27273 z m -486.71937,-1.77152 c -1.69831,-1.87661 -2.19879,-6.81098 -0.88968,-8.77156 0.9933,-1.4876 4.74413,-3.3997 6.66895,-3.3997 4.61305,0 7.48539,8.93749 3.99431,12.42857 -2.14978,2.14979 -7.7281,2.00293 -9.77358,-0.25731 z m 33.79956,-5.62581 c -3.00378,-3.00378 -3.1035,-5.45073 -0.36404,-8.93339 1.89306,-2.40663 2.65265,-2.63546 8.04174,-2.42263 5.35466,0.21146 5.92194,0.43929 5.65901,2.2728 -0.2954,2.05989 -0.72162,2.11478 -6.84814,0.88197 -4.90995,-0.98801 -6.30506,4.14206 -1.6798,6.17692 1.22375,0.53838 2.37312,1.76638 2.55416,2.72888 0.50811,2.70136 -4.4295,2.22889 -7.36293,-0.70455 z M 505.5,426.65535 C 492.54081,422.38138 483.50264,413.93592 479.38186,402.25 l -1.8513,-5.25 h -16.05518 c -17.6675,0 -24.34732,1.17267 -32.75932,5.75106 -5.3934,2.93545 -11.18903,8.98065 -13.28868,13.86092 -1.06316,2.47111 -2.12025,3.2411 -5.13313,3.73899 -4.98984,0.8246 -17.29425,0.82741 -17.29425,0.004 0,-0.35479 1.54895,-3.86546 3.4421,-7.80149 4.96451,-10.32164 13.47332,-18.48878 25.0579,-24.05173 11.27047,-5.4121 17.73271,-6.50134 38.58191,-6.5031 l 16.41809,-10e-4 1.82328,-6.24862 c 4.27981,-14.66748 15.29069,-24.90908 30.98151,-28.81697 10.64317,-2.65074 25.10087,1.22965 34.16962,9.171 5.46809,4.78831 11.19786,14.07385 12.62809,20.46478 l 1.21576,5.43258 19.09087,0.0174 c 27.82787,0.0253 39.01894,3.12357 51.07191,14.1393 5.9646,5.45132 13.0637,16.31703 14.12381,21.61759 L 642.25,421 h -9.60815 -9.60816 l -2.4133,-4.75 c -3.03908,-5.98169 -8.50747,-11.64023 -13.92668,-14.41091 -7.78322,-3.97933 -13.31707,-4.81477 -31.97509,-4.82722 -16.07865,-0.0107 -17.8305,0.15571 -18.2942,1.73813 -0.28205,0.9625 -1.87628,4.53212 -3.54273,7.93249 -3.53026,7.2034 -10.31608,13.96221 -17.9989,17.92725 -4.64952,2.39958 -6.74504,2.81798 -15.38279,3.07142 -6.36032,0.18661 -11.45587,-0.18675 -14,-1.02581 z m 24.11934,-9.78588 c 11.24539,-4.20745 18.33264,-14.55867 19.15491,-27.97656 0.41217,-6.72587 0.14764,-8.31686 -2.28356,-13.73431 -5.39858,-12.02963 -16.52096,-19.53309 -28.99069,-19.55792 -12.37137,-0.0246 -22.8908,6.49023 -28.45317,17.62152 -2.56101,5.12504 -3.04683,7.26167 -3.04683,13.40001 0,11.9253 3.83642,19.74535 13,26.49887 8.4279,6.21133 20.18853,7.65105 30.61934,3.74839 z M 509,407.40991 c -5.61092,-2.42361 -10.87493,-8.24965 -12.54987,-13.8898 -5.18289,-17.45269 14.23549,-34.02325 30.17408,-25.74886 16.84973,8.7474 16.34569,32.49596 -0.84209,39.6757 -4.67138,1.95135 -12.21734,1.93469 -16.78212,-0.037 z M 357.04427,381.42263 c -13.06489,-5.66752 -18.89085,-18.86995 -14.02555,-31.78385 2.71506,-7.20657 8.09801,-12.66699 15.51979,-15.74315 3.00382,-1.24501 5.46149,-2.63085 5.46149,-3.07964 0,-2.0337 1.71188,-0.50168 2.79911,2.50501 1.68546,4.66104 1.51315,5.679 -0.96125,5.679 -1.18918,0 -4.08079,1.1244 -6.4258,2.49867 -5.87648,3.44384 -9.93347,11.53868 -8.9776,17.91283 C 351.70281,367.86949 359.31931,375 367.0854,375 373.93202,375 384,367.73309 384,362.79131 c 0,-1.62942 -2.68267,-7.19048 -4.69201,-9.72633 -0.18959,-0.23927 -2.19269,1.33573 -4.45135,3.5 -2.25866,2.16426 -4.29163,3.43633 -4.51771,2.82683 -0.22608,-0.6095 -1.01009,-1.92742 -1.74225,-2.9287 -1.19689,-1.63685 -0.76446,-2.24107 4.28606,-5.98895 3.08949,-2.29263 6.4745,-5.13722 7.52225,-6.32129 2.55277,-2.88494 2.93519,-2.76287 5.00362,1.59713 0.97846,2.0625 3.48515,6.25673 5.57041,9.32051 l 3.79138,5.57051 -2.44189,5.13779 c -3.0269,6.36867 -10.80456,13.51392 -17.01245,15.62916 -5.81254,1.98053 -13.72538,1.98688 -18.27179,0.0147 z m 303.22666,-1.51757 c -2.32599,-1.15134 -5.61343,-3.73849 -7.30543,-5.74921 -1.69199,-2.01072 -3.94797,-4.70271 -5.01328,-5.98222 l -1.93692,-2.32636 3.21122,-3.82493 3.21122,-3.82492 3.03113,6.11353 c 3.51936,7.09826 6.86968,9.89613 12.05477,10.06699 2.90964,0.0959 4.13107,-0.4419 5.69568,-2.50777 2.53737,-3.35027 1.89551,-5.4008 -3.76714,-12.03477 -2.42868,-2.84527 -5.16007,-7.12211 -6.06976,-9.5041 -1.46335,-3.83173 -1.49017,-4.76127 -0.23268,-8.06519 1.84175,-4.83904 6.89249,-8.26611 12.18242,-8.26611 5.97337,0 11.76825,3.31056 17.66785,10.09347 l 5.25003,6.0361 -2.81211,2.93522 C 693.89127,354.67915 692.32114,356 691.94877,356 c -0.37238,0 -1.4424,-2.00403 -2.37782,-4.4534 C 687.35396,345.74149 682.00143,341 677.6652,341 c -7.32285,0 -7.64702,5.44035 -0.81408,13.66255 6.17899,7.4353 7.14973,9.34029 7.14514,14.02171 -0.0107,10.89973 -12.46978,16.79222 -23.72533,11.2208 z M 610.5,346.49188 c -6.63158,-3.16064 -6.86736,-3.38706 -4.47972,-4.30197 1.76579,-0.67662 3.4677,-3.02003 5.68497,-7.82782 C 616.42868,324.12013 617.98508,320 617.1306,320 c -0.42204,0 -6.13658,3.08966 -12.69898,6.86592 -6.56239,3.77626 -12.02495,6.79543 -12.13901,6.70928 -0.11406,-0.0861 -1.80736,-6.43832 -3.76287,-14.11592 -1.95552,-7.67761 -3.8192,-14.63428 -4.14152,-15.45928 -0.58858,-1.50649 -9.29735,19.01485 -9.3575,22.05 -0.0169,0.8525 0.50178,2.0825 1.15261,2.73333 2.24431,2.24431 0.24297,2.09236 -7.15041,-0.54288 -7.3514,-2.62029 -7.38786,-2.6509 -4.15408,-3.48886 2.46065,-0.63762 3.64259,-1.75542 4.80944,-4.54848 0.85087,-2.03671 2.9957,-6.85311 4.7663,-10.70311 7.82292,-17.01023 10.03933,-23.47948 8.751,-25.54242 -1.1077,-1.77371 -0.95135,-1.95758 1.66463,-1.95758 3.40132,0 3.81659,0.84539 7.61372,15.5 3.95221,15.2531 6.5243,23.5 7.32932,23.5 1.39831,0 16.73256,-9.3282 22.5059,-13.69088 l 5.81914,-4.39731 5.07898,1.89463 5.07899,1.89463 -3.08399,1.07509 c -3.62811,1.26476 -4.08461,2.08703 -12.16326,21.90892 -5.0365,12.35763 -5.98964,15.55733 -5.11894,17.18426 2.15022,4.01773 1.74903,3.99734 -7.43007,-0.37746 z m -188.07232,-1.16402 c 0.74946,-1.95306 3.55159,-40.14747 3.56392,-48.57786 0.005,-3.1625 0.37421,-5.75 0.82131,-5.75 0.4471,0 2.1346,1.39829 3.75,3.10731 4.30494,4.55443 30.53276,27.33927 34.8177,30.24711 2.02093,1.37144 3.32454,2.70502 2.89691,2.96351 -1.1982,0.72425 -15.81989,5.68207 -16.75769,5.68207 -0.45639,0 10e-4,-0.91851 1.01739,-2.04113 1.81241,-2.00269 1.77955,-2.10876 -1.74476,-5.63308 -2.89437,-2.89436 -3.85418,-3.35458 -4.94221,-2.36971 -0.74264,0.67223 -4.72525,2.66689 -8.85025,4.43258 l -7.5,3.21035 -0.31129,4.27809 c -0.26339,3.61982 0.006,4.36103 1.75,4.81712 3.03385,0.79337 2.56951,1.50959 -2.95364,4.55578 -5.81826,3.20895 -6.41995,3.32565 -5.55739,1.07786 z m 14.75018,-23.41764 6.12083,-3.08979 -5.61311,-5.61311 c -3.08721,-3.08722 -5.80409,-5.40931 -6.0375,-5.16022 -0.72523,0.77395 -1.89301,16.9529 -1.22364,16.9529 0.34792,0 3.38697,-1.3904 6.75342,-3.08978 z m 58.59963,-2.46692 C 497.93792,317.93008 498,317.37005 498,299.39555 V 280.9045 l -2.5494,-2.3627 c -1.40217,-1.29949 -2.18967,-2.53342 -1.75,-2.74207 0.43967,-0.20866 7.0994,-0.36145 14.7994,-0.33955 15.29534,0.0435 18.51676,0.98855 22.75543,6.67558 4.37103,5.86462 2.97026,15.70458 -2.77115,19.4665 l -2.4741,1.62109 2.74491,4.95513 c 1.5097,2.72532 4.38119,6.74446 6.38109,8.93142 l 3.63617,3.97629 -6.62384,-0.29309 -6.62384,-0.2931 -4.01234,-7.23101 -4.01233,-7.231 -5.25,-0.019 L 507,306 v 5.18555 c 0,3.94782 0.51898,5.73798 2.17431,7.5 L 511.34863,321 h -8.89682 c -8.33745,0 -8.75709,-0.0979 -6.67432,-1.5567 z m 25.58765,-22.51588 c 3.4715,-2.73068 3.70619,-9.15814 0.46055,-12.61297 C 519.99733,282.36826 518.64488,282 513.32569,282 H 507 v 8.5 8.5 h 5.86514 c 4.41941,0 6.51462,-0.51088 8.5,-2.07258 z"
          id="path4534"
        />
      </g>
    </svg>